<?xml version="1.0" encoding="utf-8"?>
<!-- Generator: Adobe Illustrator 19.0.0, SVG Export Plug-In . SVG Version: 6.00 Build 0)  -->
<svg version="1.1" id="Layer_1" xmlns="http://www.w3.org/2000/svg" xmlns:xlink="http://www.w3.org/1999/xlink" x="0px" y="0px"
	 width="1620px" height="1015px" viewBox="0 0 1620 1015" style="enable-background:new 0 0 1620 1015;" xml:space="preserve">
<style type="text/css">
	.st0{fill:#079247;}
	.st1{fill:#84C341;}
	.st2{fill:#D92827;}
</style>
<g id="Layer_x0020_1">
	<rect x="725.4" y="29" class="st0" width="118.8" height="105.6"/>
	<rect x="725.4" y="240.3" class="st0" width="118.8" height="105.6"/>
	<rect x="963.2" y="240.3" class="st0" width="118.8" height="105.6"/>
	<rect x="844.4" y="134.7" class="st1" width="118.8" height="105.6"/>
	<rect x="1082.3" y="345.7" class="st1" width="118.8" height="105.6"/>
	<rect x="606.7" y="345.7" class="st1" width="118.8" height="105.6"/>
	<rect x="487.9" y="240.3" class="st1" width="118.8" height="105.6"/>
	<rect x="368.9" y="345.7" class="st0" width="118.8" height="105.6"/>
	<rect x="606.7" y="134.7" class="st0" width="118.8" height="105.6"/>
	<rect x="844.6" y="345.7" class="st0" width="118.8" height="105.6"/>
	<path class="st0" d="M652.4,655.2l128.5,45.6l128.5-45.6c-104.4,72.6-87.5,225.6-6.5,330.7l-122-2.2l-122,2.2
		C739.9,880.8,756.8,727.8,652.4,655.2L652.4,655.2z"/>
	<path class="st2" d="M285.9,884.5c-12,0-21.7-1.9-29.1-5.6c-7.4-3.7-12.9-8.7-16.6-15.1c-3.7-6.4-5.5-12.6-5.5-18.7
		c0-12.2,4.6-24.6,13.9-37.1c9.3-12.4,21.8-22.4,37.6-29.9c15.8-7.5,31.3-11.2,46.6-11.2c9,0,17.6,1.7,25.6,5.1
		c8.1,3.4,14.4,8.2,18.9,14.3c4.5,6.1,6.8,12.3,6.8,18.5c0,14-5.9,28-17.7,42c-11.8,14-25,24.2-39.7,30.5
		C315.5,882.2,302,884.5,285.9,884.5L285.9,884.5z M329.2,773.8c-5.8,0-10.7,0.8-14.8,2.3c-4.1,1.6-8.3,4.2-12.7,7.9
		c-4.4,3.7-8.8,9-13.4,15.9c-4.5,6.9-8.8,16.2-12.8,28c-4,11.8-6,21.6-6,29.6c0,6.7,1.9,11.8,5.8,15.3c3.9,3.4,8.9,5.2,14.9,5.2
		c8,0,14.9-2,20.5-6c11.2-8,20.3-19.7,27.4-35.2c7.1-15.5,10.6-29.3,10.6-41.3c0-7.6-1.9-13.1-5.6-16.4
		C339.4,775.5,334.7,773.8,329.2,773.8L329.2,773.8z M444.9,805.1l-13.6,35.5c9.1-10.4,16-17.5,20.5-21.3
		c6.7-5.5,12.4-9.3,17.2-11.2c4.8-2,9.4-3,13.6-3c3.8,0,7.1,1.1,9.8,3.2c2.7,2.1,4.1,4.9,4.1,8.3c0,3.1-0.9,6.9-2.7,11.3l-14,35.4
		c-1.2,3.1-1.8,5.1-1.8,6c0,0.5,0.3,1,0.8,1.5c0.6,0.5,1.1,0.7,1.7,0.7c0.7,0,1.5-0.2,2.3-0.7c2.6-1.6,5.2-3.8,7.8-6.8
		c0.7-0.8,1.7-1.9,3.2-3.5l4.2,1.9c-10.8,13.6-22,20.4-33.9,20.4c-4.5,0-8.1-0.9-10.6-2.7c-2.5-1.8-3.8-4-3.8-6.6
		c0-2.3,0.9-5.8,2.6-10.3l13.7-35.4c0.9-2.3,1.4-4,1.4-5.1c0-0.6-0.3-1.1-1-1.6c-0.7-0.5-1.4-0.7-2.3-0.7c-2.8,0-6.1,1.4-10.1,4.3
		c-10.1,7.3-19.9,18.1-29.3,32.5l-9,24.6h-28l20.5-53.2c2-5.2,3-9,3-11.2c0-1-0.3-1.7-0.9-2.4c-0.6-0.6-1.5-1.1-2.8-1.5
		c-1.3-0.3-3.8-0.5-7.5-0.5l1.2-3.1l37-4.9H444.9L444.9,805.1z"/>
	<path class="st2" d="M858.8,711.2c0.4-0.1,10.9-16.8,11.3-16.9c66.3-13.6,134.8-22.1,194.1-14.9c25.6,3.1,36.2,15.2,37.1,22.9
		c1.2,10.9-21.9,16.2-53.3,29.3c-127.4,53.1-273,75.2-408.9,92.9c-2.8,6.9-4.6,12.6-3.5,16.8c11,40.7,136,28.7,255.5-3
		c87.3-23.2,166.3-46,242.8-93.5c-15.9,32.3-217.4,127.3-399.1,145.8c-71.8,7.3-129.5,10.7-167.4,2.4c-37.7-8.3-60-15.8-61.6-30.3
		c-2.2-19.4,20.8-45.7,63.9-70.6c38.4-22.2,86.2-41.6,143.8-58.5c-0.1,0.1,5.2,16.9,6,21.3c0.1,0.6,0.3,1,0.2,1.1
		c-1.1,0.5-2.3,1.1-2.5,1.2c-32.1,15.4-56,32.6-72.8,53.2c72.6-9.5,127.7-19.3,172.7-29.2c60-13.2,105.8-22.3,134.9-35.3
		c29.1-13,44.6-24.1,43.6-33.1c-0.6-5.5-7.7-9.2-21.2-11.3c-13.2-2.1-32.1-1.9-56.3,0.5C899.3,703.8,878.3,707.2,858.8,711.2
		L858.8,711.2z"/>
	<path class="st0" d="M225.5,480.4h43c17.3,0,28.7,3.7,34,11c5.3,7.3,8,16.2,8,26.5c0,15.3-5.1,26.1-15.2,32.3
		c13.6,5.5,20.5,17.5,20.5,36.1c0,10.7-2.1,19.7-6.4,26.8c-4.2,7.2-9.1,11.7-14.5,13.6c-5.4,1.9-16.3,2.8-32.7,2.8h-36.7
		L225.5,480.4L225.5,480.4z M247.3,505.2v34.6h14.3c11.3,0,18.7-1.1,22.3-3.2c3.7-2.1,5.5-6.9,5.5-14.4c0-6.9-1.6-11.5-4.8-13.7
		c-3.2-2.2-11.5-3.3-24.7-3.3H247.3L247.3,505.2z M247.3,564.6v39.9h20.1c10.1,0,16.9-1.2,20.5-3.7c3.6-2.5,5.4-7.8,5.4-15.9
		c0-7.8-2-13.1-5.8-16c-3.9-2.9-11.4-4.3-22.7-4.3H247.3L247.3,564.6z"/>
	<path id="_x31_" class="st0" d="M458.4,629.5h-23.7l-9.3-33.8h-43.1l-8.9,33.8h-23.1l42-149.1h22.9L458.4,629.5L458.4,629.5z
		 M418.3,570.5l-14.8-55.3l-14.6,55.3H418.3L418.3,570.5z"/>
	<polygon id="_x31_2" class="st0" points="497.2,629.5 497.2,480.4 518.4,480.4 562.5,580 562.5,480.4 582.7,480.4 582.7,629.5 
		560.9,629.5 517.5,532.3 517.5,629.5 	"/>
	<path id="_x31_23" class="st0" d="M682.9,574.7v-25.1h47V609c-12.1,15.4-27.4,23.1-46.1,23.1c-17.9,0-31.4-7.2-40.7-21.7
		c-9.3-14.5-13.9-33.1-13.9-55.8c0-25.6,5.1-44.7,15.5-57.4c10.3-12.7,23-19.1,37.9-19.1c26,0,41.3,14.6,45.9,43.8l-21.6,5.6
		c-3.3-15.8-11.4-23.7-24.3-23.7c-20.7,0-31.1,16.5-31.1,49.5c0,16.5,2.6,29.5,7.9,39c5.3,9.5,12.9,14.1,22.9,14.1
		c9.2,0,17.7-4.2,25.6-12.6v-19H682.9L682.9,574.7z"/>
	<path id="_x31_234" class="st0" d="M874.2,629.5h-23.7l-9.3-33.8h-43.1l-8.9,33.8h-23.1l42-149.1h22.9L874.2,629.5L874.2,629.5z
		 M834.1,570.5l-14.8-55.3l-14.6,55.3H834.1z"/>
	<polygon id="_x31_2345" class="st0" points="912.8,629.5 912.8,480.4 934.7,480.4 934.7,604.4 988.7,604.4 988.7,629.5 	"/>
	<path id="_x31_23456" class="st0" d="M1027.6,555.8c0-24.1,4.6-43.1,13.8-57c9.2-13.9,22-20.9,38.3-20.9c18.6,0,31.9,7.7,40.1,22.9
		c8.2,15.3,12.3,33.4,12.3,54.4c0,23.7-4.6,42.4-13.9,56.2c-9.2,13.7-21.9,20.6-38.2,20.6c-16.4,0-29.2-6.8-38.5-20.4
		C1032.2,598,1027.6,579.4,1027.6,555.8L1027.6,555.8z M1050,554.9c0,15.5,2.6,27.9,7.8,37.3c5.2,9.4,12.6,14.1,22.1,14.1
		c10,0,17.4-4.9,22.4-14.8c4.9-9.8,7.4-22.2,7.4-37.1c0-33.9-9.9-50.8-29.7-50.8C1060,503.7,1050,520.7,1050,554.9L1050,554.9z"/>
	<path id="_x31_234567" class="st0" d="M1176.3,629.5V480.4h45.8c14.2,0,24.8,3,31.8,8.9c7,6,10.5,16.9,10.5,32.9
		c0,23.9-9.5,37.8-28.5,41.6c7.3,5.3,15.3,17.5,24,36.6l13.2,29.1h-26l-23.4-48.3c-2.3-4.8-4.9-8.3-7.8-10.6
		c-2.8-2.3-7.3-3.5-13.5-3.5h-4.4v62.3L1176.3,629.5L1176.3,629.5z M1198.1,543.5h16.1c11,0,18.4-1.3,22.2-3.8
		c3.8-2.6,5.7-7.7,5.7-15.5c0-7.4-1.6-12.3-4.7-14.8c-3.2-2.5-10.6-3.7-22.3-3.7h-17L1198.1,543.5L1198.1,543.5z"/>
	<polygon id="_x31_2345678" class="st0" points="1312,629.5 1312,480.4 1391.9,480.4 1391.9,505.7 1333.7,505.7 1333.7,538.7 
		1387.9,538.7 1387.9,563.8 1333.7,563.8 1333.7,604.4 1394,604.4 1394,629.5 	"/>
</g>
</svg>
